<svg xmlns="http://www.w3.org/2000/svg" xmlns:xlink="http://www.w3.org/1999/xlink" width="100" zoomAndPan="magnify" viewBox="0 0 75 37.5" height="50" preserveAspectRatio="xMidYMid meet" version="1.0"><defs><g/><clipPath id="9937b4e6d0"><path d="M 0.492188 33 L 27 33 L 27 37 L 0.492188 37 Z M 0.492188 33 " clip-rule="nonzero"/></clipPath><clipPath id="87f47cb001"><path d="M 1 11 L 5 11 L 5 37.007812 L 1 37.007812 Z M 1 11 " clip-rule="nonzero"/></clipPath><clipPath id="c2a412849c"><path d="M 48 0 L 74.503906 0 L 74.503906 4 L 48 4 Z M 48 0 " clip-rule="nonzero"/></clipPath></defs><g fill="#ed4242" fill-opacity="1"><g transform="translate(10.496468, 26.192397)"><g><path d="M 8.515625 -16.765625 C 7.535156 -16.765625 6.726562 -16.492188 6.09375 -15.953125 C 5.46875 -15.421875 5.15625 -14.710938 5.15625 -13.828125 C 5.15625 -13.328125 5.300781 -12.847656 5.59375 -12.390625 C 5.882812 -11.929688 6.300781 -11.539062 6.84375 -11.21875 L 9.921875 -9.4375 C 10.941406 -8.84375 11.664062 -8.1875 12.09375 -7.46875 C 12.519531 -6.75 12.734375 -5.960938 12.734375 -5.109375 C 12.734375 -4.222656 12.472656 -3.390625 11.953125 -2.609375 C 11.441406 -1.835938 10.679688 -1.207031 9.671875 -0.71875 C 8.671875 -0.238281 7.441406 0 5.984375 0 C 4.890625 0 3.925781 -0.164062 3.09375 -0.5 C 2.269531 -0.84375 1.628906 -1.304688 1.171875 -1.890625 C 0.710938 -2.484375 0.484375 -3.148438 0.484375 -3.890625 C 0.484375 -4.753906 0.691406 -5.382812 1.109375 -5.78125 C 1.523438 -6.1875 2.023438 -6.390625 2.609375 -6.390625 C 2.992188 -6.390625 3.289062 -6.335938 3.5 -6.234375 C 3.71875 -6.128906 3.867188 -6.023438 3.953125 -5.921875 C 4.035156 -5.816406 4.078125 -5.765625 4.078125 -5.765625 C 4.078125 -5.765625 4.007812 -5.679688 3.875 -5.515625 C 3.738281 -5.359375 3.597656 -5.128906 3.453125 -4.828125 C 3.304688 -4.535156 3.234375 -4.179688 3.234375 -3.765625 C 3.234375 -3.035156 3.484375 -2.445312 3.984375 -2 C 4.484375 -1.550781 5.195312 -1.328125 6.125 -1.328125 C 7.21875 -1.328125 8.078125 -1.613281 8.703125 -2.1875 C 9.335938 -2.757812 9.65625 -3.4375 9.65625 -4.21875 C 9.65625 -4.832031 9.484375 -5.367188 9.140625 -5.828125 C 8.804688 -6.296875 8.238281 -6.757812 7.4375 -7.21875 L 4.84375 -8.6875 C 3.832031 -9.257812 3.117188 -9.894531 2.703125 -10.59375 C 2.285156 -11.300781 2.078125 -12.085938 2.078125 -12.953125 C 2.078125 -13.859375 2.328125 -14.695312 2.828125 -15.46875 C 3.328125 -16.25 4.050781 -16.878906 5 -17.359375 C 5.957031 -17.847656 7.140625 -18.09375 8.546875 -18.09375 C 9.679688 -18.09375 10.675781 -17.914062 11.53125 -17.5625 C 12.394531 -17.207031 13.066406 -16.722656 13.546875 -16.109375 C 14.023438 -15.503906 14.265625 -14.800781 14.265625 -14 C 14.265625 -13.15625 14.050781 -12.492188 13.625 -12.015625 C 13.207031 -11.546875 12.628906 -11.3125 11.890625 -11.3125 C 11.316406 -11.3125 10.90625 -11.414062 10.65625 -11.625 C 10.414062 -11.832031 10.296875 -11.9375 10.296875 -11.9375 C 10.296875 -11.9375 10.394531 -12.015625 10.59375 -12.171875 C 10.800781 -12.335938 11.003906 -12.601562 11.203125 -12.96875 C 11.398438 -13.332031 11.5 -13.800781 11.5 -14.375 C 11.5 -15.050781 11.257812 -15.617188 10.78125 -16.078125 C 10.300781 -16.535156 9.546875 -16.765625 8.515625 -16.765625 Z M 8.515625 -16.765625 "/></g></g></g><g fill="#ed4242" fill-opacity="1"><g transform="translate(22.942989, 26.192397)"><g/></g></g><g fill="#ed4242" fill-opacity="1"><g transform="translate(26.198936, 26.192397)"><g><path d="M 10.65625 -10.078125 L 9.625 -4.21875 C 9.5 -3.5 9.53125 -2.960938 9.71875 -2.609375 C 9.914062 -2.265625 10.226562 -2.09375 10.65625 -2.09375 C 11.082031 -2.09375 11.535156 -2.28125 12.015625 -2.65625 C 12.492188 -3.039062 12.890625 -3.554688 13.203125 -4.203125 C 13.359375 -4.203125 13.476562 -4.148438 13.5625 -4.046875 C 13.65625 -3.953125 13.6875 -3.796875 13.65625 -3.578125 C 13.59375 -3.253906 13.441406 -2.890625 13.203125 -2.484375 C 12.972656 -2.078125 12.664062 -1.6875 12.28125 -1.3125 C 11.894531 -0.9375 11.453125 -0.625 10.953125 -0.375 C 10.453125 -0.125 9.914062 0 9.34375 0 C 8.550781 0 7.894531 -0.234375 7.375 -0.703125 C 6.863281 -1.179688 6.578125 -1.851562 6.515625 -2.71875 C 6.015625 -1.84375 5.445312 -1.171875 4.8125 -0.703125 C 4.175781 -0.234375 3.515625 0 2.828125 0 C 1.835938 0 1 -0.335938 0.3125 -1.015625 C -0.375 -1.691406 -0.71875 -2.738281 -0.71875 -4.15625 C -0.71875 -5.5 -0.539062 -6.664062 -0.1875 -7.65625 C 0.164062 -8.644531 0.628906 -9.460938 1.203125 -10.109375 C 1.785156 -10.765625 2.425781 -11.253906 3.125 -11.578125 C 3.820312 -11.898438 4.523438 -12.0625 5.234375 -12.0625 C 5.847656 -12.0625 6.367188 -11.953125 6.796875 -11.734375 C 7.222656 -11.515625 7.570312 -11.226562 7.84375 -10.875 C 8.03125 -11.3125 8.289062 -11.617188 8.625 -11.796875 C 8.957031 -11.972656 9.421875 -12.0625 10.015625 -12.0625 C 10.429688 -12.0625 10.734375 -12.019531 10.921875 -11.9375 C 11.117188 -11.863281 11.21875 -11.828125 11.21875 -11.828125 C 11.21875 -11.828125 11.15625 -11.703125 11.03125 -11.453125 C 10.914062 -11.203125 10.789062 -10.742188 10.65625 -10.078125 Z M 3.78125 -2.09375 C 4.21875 -2.09375 4.617188 -2.289062 4.984375 -2.6875 C 5.359375 -3.082031 5.691406 -3.585938 5.984375 -4.203125 C 6.273438 -4.828125 6.523438 -5.488281 6.734375 -6.1875 C 6.953125 -6.882812 7.117188 -7.53125 7.234375 -8.125 L 7.453125 -9.265625 C 7.335938 -9.503906 7.160156 -9.753906 6.921875 -10.015625 C 6.679688 -10.285156 6.328125 -10.421875 5.859375 -10.421875 C 5.316406 -10.421875 4.773438 -10.160156 4.234375 -9.640625 C 3.691406 -9.128906 3.242188 -8.40625 2.890625 -7.46875 C 2.535156 -6.53125 2.359375 -5.40625 2.359375 -4.09375 C 2.359375 -3.425781 2.484375 -2.925781 2.734375 -2.59375 C 2.984375 -2.257812 3.332031 -2.09375 3.78125 -2.09375 Z M 3.78125 -2.09375 "/></g></g></g><g fill="#ed4242" fill-opacity="1"><g transform="translate(37.584079, 26.192397)"><g/></g></g><g fill="#ed4242" fill-opacity="1"><g transform="translate(40.840026, 26.192397)"><g><path d="M 10.65625 -10.078125 L 9.265625 -2.03125 C 9.265625 -2.03125 9.394531 -2.082031 9.65625 -2.1875 C 9.925781 -2.300781 10.269531 -2.457031 10.6875 -2.65625 C 11.101562 -2.863281 11.535156 -3.097656 11.984375 -3.359375 C 12.441406 -3.628906 12.847656 -3.910156 13.203125 -4.203125 C 13.335938 -4.203125 13.453125 -4.148438 13.546875 -4.046875 C 13.648438 -3.953125 13.6875 -3.816406 13.65625 -3.640625 C 13.601562 -3.429688 13.335938 -3.144531 12.859375 -2.78125 C 12.410156 -2.4375 11.832031 -2.066406 11.125 -1.671875 C 10.425781 -1.273438 9.722656 -0.90625 9.015625 -0.5625 L 8.96875 -0.265625 C 8.507812 2.535156 7.710938 4.6875 6.578125 6.1875 C 5.453125 7.6875 4 8.4375 2.21875 8.4375 C 1.394531 8.4375 0.738281 8.195312 0.25 7.71875 C -0.238281 7.25 -0.484375 6.644531 -0.484375 5.90625 C -0.484375 5.195312 -0.296875 4.519531 0.078125 3.875 C 0.460938 3.238281 0.953125 2.671875 1.546875 2.171875 C 2.140625 1.660156 2.773438 1.195312 3.453125 0.78125 C 4.140625 0.375 4.972656 -0.0703125 5.953125 -0.5625 L 6.25 -2.265625 C 5.269531 -0.753906 4.128906 0 2.828125 0 C 1.835938 0 1 -0.335938 0.3125 -1.015625 C -0.375 -1.691406 -0.71875 -2.738281 -0.71875 -4.15625 C -0.71875 -5.5 -0.539062 -6.664062 -0.1875 -7.65625 C 0.164062 -8.644531 0.628906 -9.460938 1.203125 -10.109375 C 1.785156 -10.765625 2.425781 -11.253906 3.125 -11.578125 C 3.820312 -11.898438 4.523438 -12.0625 5.234375 -12.0625 C 5.847656 -12.0625 6.367188 -11.953125 6.796875 -11.734375 C 7.222656 -11.515625 7.570312 -11.226562 7.84375 -10.875 C 8.03125 -11.3125 8.289062 -11.617188 8.625 -11.796875 C 8.957031 -11.972656 9.421875 -12.0625 10.015625 -12.0625 C 10.429688 -12.0625 10.734375 -12.019531 10.921875 -11.9375 C 11.117188 -11.863281 11.21875 -11.828125 11.21875 -11.828125 C 11.21875 -11.828125 11.148438 -11.703125 11.015625 -11.453125 C 10.890625 -11.203125 10.769531 -10.742188 10.65625 -10.078125 Z M 3.78125 -2.09375 C 4.21875 -2.09375 4.617188 -2.289062 4.984375 -2.6875 C 5.359375 -3.082031 5.691406 -3.585938 5.984375 -4.203125 C 6.273438 -4.828125 6.523438 -5.488281 6.734375 -6.1875 C 6.953125 -6.882812 7.117188 -7.53125 7.234375 -8.125 L 7.453125 -9.265625 C 7.335938 -9.503906 7.160156 -9.753906 6.921875 -10.015625 C 6.679688 -10.285156 6.328125 -10.421875 5.859375 -10.421875 C 5.316406 -10.421875 4.773438 -10.160156 4.234375 -9.640625 C 3.691406 -9.128906 3.242188 -8.40625 2.890625 -7.46875 C 2.535156 -6.53125 2.359375 -5.40625 2.359375 -4.09375 C 2.359375 -3.425781 2.484375 -2.925781 2.734375 -2.59375 C 2.984375 -2.257812 3.332031 -2.09375 3.78125 -2.09375 Z M 1.984375 6.84375 C 2.828125 6.84375 3.566406 6.34375 4.203125 5.34375 C 4.835938 4.351562 5.332031 2.894531 5.6875 0.96875 C 4.90625 1.363281 4.234375 1.742188 3.671875 2.109375 C 3.109375 2.472656 2.648438 2.832031 2.296875 3.1875 C 1.347656 4.101562 0.875 4.960938 0.875 5.765625 C 0.875 6.066406 0.960938 6.320312 1.140625 6.53125 C 1.328125 6.738281 1.609375 6.84375 1.984375 6.84375 Z M 1.984375 6.84375 "/></g></g></g><g fill="#ed4242" fill-opacity="1"><g transform="translate(52.225169, 26.192397)"><g/></g></g><g fill="#ed4242" fill-opacity="1"><g transform="translate(55.481116, 26.192397)"><g><path d="M 4.734375 0 C 3.679688 0 2.738281 -0.207031 1.90625 -0.625 C 1.082031 -1.039062 0.441406 -1.640625 -0.015625 -2.421875 C -0.484375 -3.203125 -0.71875 -4.132812 -0.71875 -5.21875 C -0.71875 -6.269531 -0.53125 -7.222656 -0.15625 -8.078125 C 0.207031 -8.929688 0.695312 -9.648438 1.3125 -10.234375 C 1.9375 -10.828125 2.628906 -11.28125 3.390625 -11.59375 C 4.148438 -11.90625 4.929688 -12.0625 5.734375 -12.0625 C 6.554688 -12.0625 7.21875 -11.9375 7.71875 -11.6875 C 8.226562 -11.4375 8.597656 -11.125 8.828125 -10.75 C 9.066406 -10.375 9.1875 -9.972656 9.1875 -9.546875 C 9.1875 -8.453125 8.585938 -7.539062 7.390625 -6.8125 C 6.191406 -6.082031 4.53125 -5.515625 2.40625 -5.109375 C 2.488281 -4.210938 2.828125 -3.453125 3.421875 -2.828125 C 4.015625 -2.210938 4.828125 -1.90625 5.859375 -1.90625 C 6.734375 -1.90625 7.476562 -2.023438 8.09375 -2.265625 C 8.707031 -2.503906 9.21875 -2.800781 9.625 -3.15625 C 10.039062 -3.507812 10.351562 -3.859375 10.5625 -4.203125 C 10.914062 -4.203125 11.046875 -3.992188 10.953125 -3.578125 C 10.898438 -3.316406 10.71875 -2.984375 10.40625 -2.578125 C 10.09375 -2.179688 9.671875 -1.785156 9.140625 -1.390625 C 8.609375 -0.992188 7.96875 -0.660156 7.21875 -0.390625 C 6.476562 -0.128906 5.648438 0 4.734375 0 Z M 5.765625 -10.859375 C 5.316406 -10.859375 4.847656 -10.679688 4.359375 -10.328125 C 3.878906 -9.984375 3.460938 -9.46875 3.109375 -8.78125 C 2.753906 -8.101562 2.53125 -7.257812 2.4375 -6.25 C 3.914062 -6.601562 4.976562 -7.117188 5.625 -7.796875 C 6.28125 -8.484375 6.609375 -9.222656 6.609375 -10.015625 C 6.609375 -10.265625 6.53125 -10.46875 6.375 -10.625 C 6.226562 -10.78125 6.023438 -10.859375 5.765625 -10.859375 Z M 5.765625 -10.859375 "/></g></g></g><g clip-path="url(#9937b4e6d0)"><path stroke-linecap="butt" transform="matrix(0.280396, 0, 0, 0.280396, 1.314177, 33.672033)" fill="none" stroke-linejoin="miter" d="M -0.0059807 5.00073 L 84.430895 5.00073 " stroke="#ed4242" stroke-width="10" stroke-opacity="1" stroke-miterlimit="4"/></g><g clip-path="url(#87f47cb001)"><path stroke-linecap="butt" transform="matrix(0, 0.280396, -0.280396, 0, 4.116702, 12.513826)" fill="none" stroke-linejoin="miter" d="M 0.00641698 4.999562 L 82.465065 4.999562 " stroke="#ed4242" stroke-width="10" stroke-opacity="1" stroke-miterlimit="4"/></g><g clip-path="url(#c2a412849c)"><path stroke-linecap="butt" transform="matrix(-0.280396, 0, 0, -0.280396, 73.437042, 3.334546)" fill="none" stroke-linejoin="miter" d="M -0.00163354 4.996329 L 84.435242 4.996329 " stroke="#ed4242" stroke-width="10" stroke-opacity="1" stroke-miterlimit="4"/></g><path stroke-linecap="butt" transform="matrix(0, -0.280396, 0.280396, 0, 70.6348, 24.492756)" fill="none" stroke-linejoin="miter" d="M 0.00202596 4.994206 L 82.460674 4.994206 " stroke="#ed4242" stroke-width="10" stroke-opacity="1" stroke-miterlimit="4"/></svg>